<svg xmlns="http://www.w3.org/2000/svg" width="747.26" height="752.137" viewBox="0 0 747.26 752.137"><g transform="translate(-38.37 -35.177)"><g transform="translate(47.815 36.789)"><rect width="294.183" height="12.906" transform="translate(316.975 163.096) rotate(180)" fill="#ebebeb"/><rect width="12.906" height="42.672" transform="translate(287.562 163.113)" fill="#ebebeb"/><rect width="12.906" height="13.188" transform="translate(287.562 163.113)" fill="#dbdbdb"/><rect width="12.906" height="42.672" transform="translate(39.264 163.113)" fill="#ebebeb"/><rect width="12.906" height="13.188" transform="translate(39.264 163.113)" fill="#dbdbdb"/><rect width="82.219" height="20.709" transform="translate(262.051 67.989) rotate(90)" fill="#c7c7c7"/><rect width="9.039" height="20.709" transform="translate(262.051 63.593) rotate(90)" fill="#dbdbdb"/><rect width="3.354" height="20.709" transform="translate(262.051 84.196) rotate(90)" fill="#dbdbdb"/><rect width="9.039" height="23.287" transform="translate(262.051 130.381) rotate(90)" fill="#dbdbdb"/><rect width="95.919" height="14.477" transform="translate(241.342 54.289) rotate(90)" fill="#dbdbdb"/><rect width="36.881" height="8.686" transform="translate(238.517 63.31) rotate(90)" fill="#ebebeb"/><rect width="95.919" height="14.477" transform="matrix(-0.711, 0.703, -0.703, -0.711, 202.328, 82.807)" fill="#c7c7c7"/><rect width="36.881" height="8.686" transform="matrix(-0.711, 0.703, -0.703, -0.711, 174.272, 106.397)" fill="#dbdbdb"/><rect width="72.844" height="24.576" transform="translate(226.883 77.364) rotate(90)" fill="#a6a6a6"/><rect width="6.797" height="24.576" transform="translate(226.883 135.713) rotate(90)" fill="#c7c7c7"/><rect width="2.631" height="24.576" transform="translate(226.883 128.616) rotate(90)" fill="#c7c7c7"/><rect width="68.466" height="16.966" transform="translate(279.035 81.76) rotate(90)" fill="#a6a6a6"/><rect width="6.373" height="16.966" transform="translate(279.035 136.578) rotate(90)" fill="#c7c7c7"/><rect width="6.373" height="16.966" transform="translate(279.035 95.866) rotate(90)" fill="#c7c7c7"/><rect width="2.472" height="16.966" transform="translate(279.017 106.618) rotate(90)" fill="#c7c7c7"/><path d="M91.04,71.508c14.477,14.124,16.913,36.122,13.859,55.33,0,.424-.759.318-.759-.106,0-4.361.141-8.7.124-13.012a1.491,1.491,0,0,0-.23-.583,29.183,29.183,0,0,1-9.41-10.116c-2.419-4.749-3.372-10.116-5.208-15.095-.177-.477.335-.335.653-.088,8.827,6.5,11.617,13.488,14.124,22.828a78.46,78.46,0,0,0-1.536-14.548A49.593,49.593,0,0,0,90.651,71.9a.282.282,0,0,1,.388-.388Z" transform="translate(-8.768 -9.01)" fill="#a6a6a6"/><path d="M94.481,78.076c-2.507,0-4.061,4.061-6,5.3a1.871,1.871,0,0,1-2.754-.441c-1.924-2.684.724-5.985,3.2-7.839a27.169,27.169,0,0,1-5.155,2.225,1.765,1.765,0,0,1-2.33-1.395c-.847-3.655,3.743-5.3,6.9-5.3-1.536-1.059-5.914-3.937-3.531-5.3s7.5,2.7,9.163,4.061c2.472,1.995,5.4,5,5.526,8.121C99.584,81.077,96.388,78.835,94.481,78.076Z" transform="translate(-14.929 -13.918)" fill="#dbdbdb"/><path d="M93.644,77.277c-3.178-1.465-9.3.636-9.816-.583-1.059-2.454,3.831-4.131,6.479-4.467-2.436-.653-7.062-1.765-6.956-4.043.177-2.86,7.15-.406,10.681,2.3,4.431,3.407,4.414,6.709,3.672,7.362C96.7,78.742,94.173,77.506,93.644,77.277Z" transform="translate(-13.385 -12.501)" fill="#ebebeb"/><path d="M116.2,70.74c-15.007,13.612-18.273,35.433-15.889,54.73,0,.441.742.353.759,0,.159-4.361.194-8.7.371-13.012l.247-.583a28.954,28.954,0,0,0,9.781-9.728c2.613-4.661,3.76-9.993,5.791-14.883.194-.477-.318-.353-.653-.124-9.057,6.162-12.129,13.047-15.007,22.28a78.21,78.21,0,0,1,2.083-14.477,49.593,49.593,0,0,1,12.959-23.763.312.312,0,0,0-.441-.441Z" transform="translate(-0.944 -9.636)" fill="#a6a6a6"/><path d="M112.643,77.265c2.489.177,3.9,4.22,5.791,5.455a1.871,1.871,0,0,0,2.772-.335c2.03-2.613-.494-6.02-2.9-7.962A27.93,27.93,0,0,0,123.377,77a1.765,1.765,0,0,0,2.383-1.306c.971-3.637-3.531-5.438-6.691-5.632,1.554-1.006,6.038-3.725,3.778-5.3s-7.556,2.454-9.322,3.778c-2.542,1.907-5.579,4.784-5.808,7.892C107.435,80.072,110.7,77.954,112.643,77.265Z" transform="translate(5.256 -14.414)" fill="#dbdbdb"/><path d="M112,76.351c3.248-1.324,9.269.989,9.834-.194,1.148-2.4-3.672-4.272-6.285-4.7,2.454-.565,7.062-1.448,7.062-3.8,0-2.86-7.062-.671-10.752,1.907-4.555,3.231-4.661,6.515-3.955,7.2C108.889,77.746,111.466,76.616,112,76.351Z" transform="translate(5.162 -12.953)" fill="#ebebeb"/><path d="M105.409,113.158a144.767,144.767,0,0,1-4.661,21.521.531.531,0,0,1-1.042-.212c.989-6.638,2.789-13.153,3.76-19.773a99.15,99.15,0,0,0,1.165-20.321C104,83.2,100.96,71.3,93.668,62.595c-.159-.212.177-.512.335-.318,14.618,17.037,12.358,37.923,12.358,39.794,2.066-7.062,4.2-15.13,12.023-22.316.335-.318.6-.159.547.371-1.395,13.065-5.032,19.9-12.623,26.888C106.009,109.045,105.744,111.111,105.409,113.158Z" transform="translate(-5.517 -16.092)" fill="#a6a6a6"/><path d="M99.031,71.378c-2.631-1.165-6.25,2.172-8.827,2.4a2.154,2.154,0,0,1-2.631-1.765c-.653-3.743,3.76-5.861,7.256-6.532-2.207-.141-4.378.459-6.55-.124a2.083,2.083,0,0,1-1.765-2.631c.971-4.22,6.55-3.531,9.869-2.1-1.059-1.765-4.149-7.062-1.024-7.362s6.426,6.568,7.468,8.827c1.554,3.319,3.107,7.892,1.642,11.193C102.827,77.063,100.637,73.126,99.031,71.378Z" transform="translate(-11.021 -22.951)" fill="#dbdbdb"/><path d="M98.115,70.734c-2.578-3.09-9.975-4.008-9.9-5.526.141-3.072,6.056-2.366,8.969-1.377-2.189-1.907-6.5-5.3-5.173-7.7,1.624-2.878,7.609,3.178,9.922,7.768,2.9,5.773,1.2,9.163.106,9.481C100.533,73.806,98.538,71.264,98.115,70.734Z" transform="translate(-9.664 -21.318)" fill="#ebebeb"/><path d="M119.957,93.313l6.444,49.222H87.19c.812-4.361,8.1-49.275,8.1-49.275Z" transform="translate(-10.444 7.673)" fill="#dbdbdb"/><path d="M374.292,130.607a35.717,35.717,0,0,1,5.72-12.588q3.866-5.3,12.464-7.7c1.766-.53,3.831-1.095,6.32-1.765a46.61,46.61,0,0,0,7.486-2.507,24.384,24.384,0,0,0,6.726-4.29,13.3,13.3,0,0,0,4.043-6.868,12.465,12.465,0,0,0,.194-5.844,13.134,13.134,0,0,0-2.119-4.837,13.505,13.505,0,0,0-3.955-3.637,17.849,17.849,0,0,0-5.12-2.154,15.677,15.677,0,0,0-6.356-.3,21.469,21.469,0,0,0-5.579,1.624,24.223,24.223,0,0,0-4.873,2.913,45.738,45.738,0,0,0-3.972,3.39L374.5,73.688a30.013,30.013,0,0,1,7.238-6.956,32.573,32.573,0,0,1,8.827-4.219,35.856,35.856,0,0,1,9.851-1.5,38.841,38.841,0,0,1,10.222,1.218A40.746,40.746,0,0,1,421.466,66.7a29.411,29.411,0,0,1,8.651,7.768A27.876,27.876,0,0,1,434.989,85.5a30.79,30.79,0,0,1-.6,14.124,29.822,29.822,0,0,1-3.249,8.192,24.347,24.347,0,0,1-4.908,5.861,29.715,29.715,0,0,1-6.3,4.149,57.418,57.418,0,0,1-7.609,3.019c-2.313.706-4.59,1.342-6.868,1.942a36.91,36.91,0,0,0-6.391,2.3,18.362,18.362,0,0,0-5.3,3.637,12.677,12.677,0,0,0-3.178,5.967Zm-8.492,35.01,5.208-20.691,16.649,4.184L382.448,169.8Z" transform="translate(202.828 -17.016)" fill="#ebebeb"/><path d="M86.28,329.04a26.287,26.287,0,0,1,.283,10.187,16.7,16.7,0,0,1-5.72,9.145c-.989.9-2.207,1.96-3.655,3.16a33.433,33.433,0,0,0-4.149,4.078,17.814,17.814,0,0,0-3.09,5.014,9.834,9.834,0,0,0-.459,5.861,9.463,9.463,0,0,0,1.765,3.955,9.834,9.834,0,0,0,2.966,2.525,10.08,10.08,0,0,0,3.8,1.112,13.241,13.241,0,0,0,4.1-.212A11.722,11.722,0,0,0,86.4,372.1a15.521,15.521,0,0,0,3.178-2.878,18.5,18.5,0,0,0,2.3-3.531,30.22,30.22,0,0,0,1.536-3.531l11.123,4.661a22.246,22.246,0,0,1-2.578,6.956,23.746,23.746,0,0,1-4.52,5.667,25.69,25.69,0,0,1-6.056,4.184,28.957,28.957,0,0,1-7.168,2.489,30.012,30.012,0,0,1-8.616.547,21.749,21.749,0,0,1-8.245-2.348,20.779,20.779,0,0,1-6.815-5.755,22.792,22.792,0,0,1-4.149-9.551,21.609,21.609,0,0,1-.494-6.479,17.655,17.655,0,0,1,1.359-5.473,20.887,20.887,0,0,1,2.842-4.784,40.6,40.6,0,0,1,4.061-4.484c1.306-1.2,2.613-2.366,3.937-3.531a27.944,27.944,0,0,0,3.531-3.531,13.311,13.311,0,0,0,2.154-4.114,9.269,9.269,0,0,0,.177-5ZM80.6,303.07l3.231,15.413-12.358,2.6-3.231-15.4Z" transform="translate(-34.446 168.28)" fill="#ebebeb"/><path d="M399.306,237.736a26.481,26.481,0,0,1,4.5,9.145,16.737,16.737,0,0,1-1.465,10.717c-.512,1.236-1.183,2.7-2,4.4a32.154,32.154,0,0,0-2.083,5.438,17.777,17.777,0,0,0-.724,5.844,9.991,9.991,0,0,0,2.013,5.526,9.25,9.25,0,0,0,3.248,2.842,9.709,9.709,0,0,0,3.761,1.059,9.816,9.816,0,0,0,3.919-.547,13.648,13.648,0,0,0,3.619-1.907,11.439,11.439,0,0,0,3.16-3.39,15.252,15.252,0,0,0,1.766-3.955,19.32,19.32,0,0,0,.618-4.149,33.509,33.509,0,0,0,0-3.831l12.041-.388a21.839,21.839,0,0,1,.565,7.38,24.259,24.259,0,0,1-1.765,7.062,26.306,26.306,0,0,1-3.778,6.32,29.124,29.124,0,0,1-5.473,5.3,29.907,29.907,0,0,1-7.627,4.078,21.822,21.822,0,0,1-8.474,1.289,20.921,20.921,0,0,1-8.58-2.383,22.951,22.951,0,0,1-7.75-6.974,21.662,21.662,0,0,1-3.143-5.685,17.477,17.477,0,0,1-1.042-5.544,21.08,21.08,0,0,1,.583-5.544,42.374,42.374,0,0,1,1.854-5.755c.688-1.642,1.377-3.248,2.119-4.82a26.481,26.481,0,0,0,1.766-4.714,13.648,13.648,0,0,0,.388-4.679,9.287,9.287,0,0,0-1.924-4.608ZM383.417,216.55l9.339,12.659-10.187,7.521-9.339-12.659Z" transform="translate(208.515 102.05)" fill="#ebebeb"/><path d="M425.686,236.927a28.723,28.723,0,0,1,2.013-11.034,18.22,18.22,0,0,1,8.263-8.527c1.253-.759,2.807-1.607,4.643-2.578a36.387,36.387,0,0,0,5.3-3.443,19.035,19.035,0,0,0,4.449-4.7,10.8,10.8,0,0,0,1.766-6.214,10.2,10.2,0,0,0-3.637-8.015,10.751,10.751,0,0,0-3.813-2.066,14.813,14.813,0,0,0-4.449-.689,13.082,13.082,0,0,0-5.014.936,17.922,17.922,0,0,0-4.078,2.383,19.714,19.714,0,0,0-3.266,3.266,34.978,34.978,0,0,0-2.436,3.443l-10.911-7.521a24.542,24.542,0,0,1,4.325-6.9,26.87,26.87,0,0,1,6.144-5.067,29.2,29.2,0,0,1,7.468-3.143A32.133,32.133,0,0,1,440.71,176a32.909,32.909,0,0,1,9.41,1.377,23.781,23.781,0,0,1,8.333,4.4,22.952,22.952,0,0,1,6.02,7.7,25.334,25.334,0,0,1,2.454,11.246,24.556,24.556,0,0,1-.936,7.062,20.176,20.176,0,0,1-2.7,5.579,23.193,23.193,0,0,1-4.131,4.5,46.27,46.27,0,0,1-5.4,3.884c-1.66,1.006-3.337,1.977-5.014,2.9a30.4,30.4,0,0,0-4.573,3.072A14.651,14.651,0,0,0,440.8,231.6a10.116,10.116,0,0,0-1.324,5.3Zm.247,29.2v-17.3h13.912v17.3Z" transform="translate(240.115 71.009)" fill="#ebebeb"/><path d="M182.985,294.831a28.813,28.813,0,0,1-.318-11.211,18.2,18.2,0,0,1,6.32-10.046c1.077-1.006,2.4-2.154,4.008-3.531a40.321,40.321,0,0,0,4.555-4.484,20.02,20.02,0,0,0,3.372-5.526,10.77,10.77,0,0,0,.494-6.444,10.328,10.328,0,0,0-1.942-4.343,10.593,10.593,0,0,0-3.284-2.648,10.8,10.8,0,0,0-4.167-1.236,15.236,15.236,0,0,0-4.484.247,13.171,13.171,0,0,0-4.714,1.96,17.78,17.78,0,0,0-3.531,3.178,20.407,20.407,0,0,0-2.507,3.866,34.406,34.406,0,0,0-1.765,3.884L163,253.342a24.506,24.506,0,0,1,2.807-7.645,26.075,26.075,0,0,1,4.961-6.232,28.459,28.459,0,0,1,6.638-4.626,33.032,33.032,0,0,1,7.874-2.754,33.4,33.4,0,0,1,9.481-.6,23.974,23.974,0,0,1,9.057,2.56,22.58,22.58,0,0,1,7.486,6.3A27.736,27.736,0,0,1,216.459,258a19.841,19.841,0,0,1-1.483,6,23.428,23.428,0,0,1-3.107,5.3,49.016,49.016,0,0,1-4.467,4.926c-1.43,1.324-2.86,2.613-4.308,3.849a31.125,31.125,0,0,0-3.849,3.955,15.342,15.342,0,0,0-2.507,4.5,10.381,10.381,0,0,0-.177,5.491Zm6.3,28.513-3.531-16.913,13.612-2.9,3.531,16.931Z" transform="translate(47.587 113.402)" fill="#ebebeb"/><path d="M415,353.839l23.587-.494,11.617-.194c3.866-.088,7.7,0,11.546-.106l-.777.794-.106-19.756.883.883-23.428-.106c-7.786,0-15.572-.212-23.375-.3l.494-.477c0,3.231-.159,6.479-.247,9.781Zm0,0-.247-9.781c0-3.284-.194-6.621-.23-9.975v-.477H415c7.8-.088,15.589-.282,23.375-.3l23.375-.106h.883v21.433h-.794c-3.937,0-7.892,0-11.811-.106l-11.758-.194Z" transform="translate(240.122 191.344)" fill="#ebebeb"/><path d="M429.767,367.949l23.587-.494,11.617-.194c3.866-.088,7.7,0,11.546-.106l-.777.794-.088-19.756.865.883-23.375-.106c-7.786,0-15.572-.212-23.375-.3l.494-.477c0,3.231-.159,6.479-.23,9.781Zm0,0-.247-9.781c0-3.284-.194-6.621-.229-9.975v-.477h.477c7.8-.088,15.589-.282,23.375-.3l23.375-.106h.9v.883l-.106,19.756v.794h-.865c-3.937,0-7.874,0-11.811-.106l-11.758-.194Z" transform="translate(251.429 202.145)" fill="#ebebeb"/><path d="M400.207,367.949l23.587-.494,11.617-.194c3.849-.088,7.7,0,11.546-.106l-.777.794-.071-19.756.883.883-23.375-.106c-7.786,0-15.589-.212-23.375-.3l.477-.477c0,3.231-.141,6.479-.229,9.781Zm0,0-.247-9.781c-.088-3.284-.194-6.621-.23-9.975v-.477h.477c7.786-.088,15.589-.282,23.375-.3l23.375-.106h.883v.883l.035,19.756v.794H447.1c-3.937,0-7.892,0-11.811-.106l-11.758-.194Z" transform="translate(228.801 202.145)" fill="#ebebeb"/><path d="M58.944,367.949l23.569-.494,11.617-.194c3.866-.088,7.715,0,11.564-.106l-.794.794-.088-19.756.883.883-23.322-.106c-7.8,0-15.589-.212-23.375-.3l.477-.477c0,3.231-.159,6.479-.23,9.781Zm0,0-.265-9.781c0-3.284-.194-6.621-.23-9.975v-.477h.494c7.786-.088,15.572-.282,23.375-.3l23.375-.106h.883v.883l-.106,19.756v.794h-.777c-3.937,0-7.892,0-11.829-.106l-11.758-.194Z" transform="translate(-32.444 202.145)" fill="#ebebeb"/><path d="M58.944,56.711l23.569-.494L94.13,56h11.564l-.794.794-.088-19.756.883.865L82.372,37.7c-7.8,0-15.589-.194-23.375-.282l.477-.477c0,3.231-.159,6.479-.23,9.763Zm0,0L58.68,46.93c0-3.3-.194-6.638-.23-9.975v-.477h.494c7.786,0,15.572-.282,23.375-.282l23.375-.106h.883v.9l-.106,19.756v.777h-.777c-3.937,0-7.892,0-11.829-.088l-11.758-.318Z" transform="translate(-32.444 -36.09)" fill="#ebebeb"/><path d="M44.214,70.821l23.569-.494L79.4,70.115H90.964l-.794.794V51.153l.883.865-23.534-.194c-7.8,0-15.589-.212-23.3-.212l.477-.477c0,3.231-.159,6.479-.23,9.763Zm0,0L43.95,61.04c0-3.3-.194-6.638-.23-9.975v-.477h.494c7.786,0,15.572-.282,23.375-.282L90.964,50.2h.883v.9l-.106,19.756v.777H79.136l-11.758-.212Z" transform="translate(-43.72 -25.289)" fill="#ebebeb"/><path d="M429.767,56.729l23.587-.494,11.617-.194c3.866,0,7.7,0,11.546-.106l-.777.794-.088-19.756.865.883L453.142,37.7c-7.786,0-15.572-.194-23.375-.282l.494-.477c0,3.231-.159,6.479-.23,9.763Zm0,0-.247-9.781c0-3.3-.194-6.621-.229-9.975V36.5h.477c7.8-.088,15.589-.265,23.375-.282l23.3-.124h.9v.883l-.088,19.756v.794H464.635l-11.758-.194Z" transform="translate(251.429 -36.09)" fill="#ebebeb"/><path d="M306.863,193.19l-23.569.494-11.617.194c-3.866.088-7.715,0-11.564.106l.794-.794L261,212.946l-.883-.883,23.375.124c7.8,0,15.589.194,23.375.282l-.477.477c0-3.231.159-6.479.23-9.763Zm0,0,.265,9.781c0,3.3.194,6.621.229,9.975v.477h-.494c-7.786,0-15.572.265-23.375.282l-23.375.106h-.883v-.9l.106-19.756v-.794h.777c3.937,0,7.892,0,11.829.088l11.758.194Z" transform="translate(121.25 83.533)" fill="#ebebeb"/><path d="M292.1,179.072l-23.569.494-11.617.194c-3.866,0-7.715,0-11.564.106l.794-.794.088,19.756-.883-.883,23.375.124c7.786,0,15.589.194,23.375.282l-.477.477c0-3.231.141-6.479.23-9.763Zm0,0,.247,9.781c.088,3.3.212,6.621.229,9.975v.477h-.494c-7.786.088-15.589.265-23.375.282l-23.375.106h-.883v-.883l.106-19.756v-.794h.865c3.937,0,7.892,0,11.829.088l11.758.194Z" transform="translate(109.936 72.739)" fill="#ebebeb"/></g><g transform="translate(38.37 695.191)"><path d="M38.37,409.9l93.412-.424,93.412-.159L412,409.02l186.806.3,93.412.159,93.412.424-93.412.441-93.412.159L412,410.785,225.194,410.5l-93.412-.159Z" transform="translate(-38.37 -409.02)" fill="#263238"/></g><g transform="translate(93.524 725.311)"><ellipse cx="318.476" cy="31.002" rx="318.476" ry="31.002" transform="translate(0)" fill="rgba(223,3,135,0.55)"/></g><g transform="translate(570.223 443.518)"><path d="M451.664,304.807c-6.709-6.568-15.377-14.512-25.635-11.67C416.39,295.8,412.7,306.325,410.97,315.1c-2.224,11.317-3.955,22.722-5.755,34.109s-3.531,22.951-5.173,34.515q-1.412,9.745-2.754,19.509-.689,4.873-1.359,9.745c-.441,3.2-.971,6.391-1.147,9.6a.9.9,0,0,0,1.765.194c1.253-5.42,1.766-11.07,2.56-16.56s1.607-11.087,2.4-16.613c1.607-11,3.284-21.98,4.926-32.979s3.372-21.963,5.138-32.944c1.483-9.322,2.189-20.886,10.434-27.03a16.013,16.013,0,0,1,15.448-1.448c5.42,2.083,9.763,5.967,14.018,9.816C451.664,305.143,451.84,304.948,451.664,304.807Z" transform="translate(-297.396 -246.508)" fill="#263238"/><path d="M431.568,304.094s-13.718-4.926-20.48,5.067,1.324,35.451,63.734,49.8a175.9,175.9,0,0,0-15.007-56.407C446.433,273.375,422.581,284.427,431.568,304.094Z" transform="translate(-286.427 -252.504)" fill="#f09"/><path d="M464.61,346.794a48.125,48.125,0,0,0-3.142-5.049c-1.042-1.607-2.1-3.213-3.16-4.8-.794-1.2-1.624-2.4-2.436-3.531a2.573,2.573,0,0,1,.106-.883l.212-1.624c.159-1.165.336-2.348.494-3.531s.371-2.313.6-3.531a18.157,18.157,0,0,1,.812-3.672c0-.194-.247-.283-.265,0a13.944,13.944,0,0,1-.565,2.083l-.424,1.571c-.3,1.183-.583,2.366-.847,3.531s-.459,2.207-.653,3.3c-.088.547-.159,1.077-.23,1.607-1.112-1.589-2.26-3.16-3.425-4.7-3.319-4.361-6.815-8.563-10.452-12.676v-.106c.335-6.55.177-13.047,1.624-19.42,0-.177-.212-.282-.265-.106a67.366,67.366,0,0,0-2.331,18.661c-1.289-1.448-2.613-2.9-3.937-4.325-3.054-3.266-6.144-6.5-9.3-9.64-.124-.124-.335,0-.212.194,5.3,5.667,10.258,11.564,15.13,17.567a107.217,107.217,0,0,0-11.423.424c-4.22.3-8.421.847-12.623,1.43-.194,0-.141.3,0,.283a111.43,111.43,0,0,1,12.606-1.13c4.078-.177,8.121,0,12.2,0q3.955,4.873,7.786,9.851H447.1c-1.907,0-3.8.177-5.685.335a84.446,84.446,0,0,0-11.529,1.765.141.141,0,0,0,0,.282c3.831-.441,7.68-.794,11.529-.936h8.545a3.53,3.53,0,0,0,1.571-.141q2.507,3.266,5.014,6.55,1.986,2.648,3.919,5.3c1.289,1.766,2.507,3.8,3.955,5.491C464.486,347.094,464.68,346.935,464.61,346.794Z" transform="translate(-279.799 -244.499)" fill="#263238"/><path d="M431.065,303.867a42.173,42.173,0,0,0-6.674-.318c-2.225,0-4.467,0-6.691.141a.141.141,0,0,0,0,.283c2.26-.177,4.52-.212,6.779-.177s4.378.247,6.55.177C431.136,303.973,431.136,303.885,431.065,303.867Z" transform="translate(-279.957 -238.1)" fill="#263238"/><path d="M436.755,309.395c.247-2.136.512-4.272.971-6.373a.141.141,0,1,0-.282,0c-.318,2.1-.724,4.184-1.024,6.285-.159,1.042-.3,2.1-.441,3.143a15.46,15.46,0,0,0-.247,2.984.194.194,0,0,0,.371,0,18.806,18.806,0,0,0,.318-2.984C436.508,311.425,436.631,310.4,436.755,309.395Z" transform="translate(-266.05 -238.596)" fill="#263238"/><path d="M434.957,293.229c-.547,2.083-1.095,4.184-1.465,6.285-.194,1.077-.371,2.154-.512,3.231a13.544,13.544,0,0,0-.212,3.16.088.088,0,0,0,.177,0,17.14,17.14,0,0,0,.477-3c.141-1.042.3-2.066.477-3.107.388-2.172.777-4.325,1.324-6.462C435.239,293.159,434.957,293.053,434.957,293.229Z" transform="translate(-268.33 -246.053)" fill="#263238"/><path d="M401.32,397.8c-.353-3.919-.742-7.856-1.148-11.776q-1.253-11.652-2.807-23.287c-1.042-7.715-2.03-15.466-3.284-23.163a56.236,56.236,0,0,0-2.383-10.593,9.975,9.975,0,0,0-5.826-6.585c-7.344-2.525-12.358,5.085-15.254,10.469-.088.159.141.282.247.141,1.766-2.56,6.674-9.71,12.253-9.375,3.743.212,6.744,2.878,8.545,12.217,4.484,23.287,8.527,70.619,9,73.638.247,1.642,1.395,1.571,1.412-.194C402.009,405.515,401.568,401.649,401.32,397.8Z" transform="translate(-315.906 -224.038)" fill="#263238"/><path d="M385.65,332.811s6.426-22.669-7.768-11.334c-23.622,18.873-24.452,59.85-24.452,59.85s41.983-24.381,47.191-40.465C408.407,316.956,385.65,332.811,385.65,332.811Z" transform="translate(-329.049 -226.79)" fill="#f09"/><path d="M392.462,338.885c-3.284.671-6.638,1.112-9.957,1.589l-4.732.671c-1.059.141-2.136.247-3.213.371,3.125-4.308,6.285-8.6,9.286-12.994a.177.177,0,1,0-.282-.212,96.116,96.116,0,0,0-7.062,8.1l-1.871-5.3c-.706-2.03-1.483-4.043-1.995-6.144,0-.177-.318,0-.265.088.565,2.066.971,4.2,1.536,6.285s1.148,3.99,1.854,5.95c-1.536,2-3.019,4.043-4.449,6.109-.724-2.048-1.624-4.025-2.242-6.109,0-.177-.335-.088-.282,0,.759,2.313,1.165,4.7,1.871,7.062-.971,1.412-1.924,2.825-2.842,4.237-1.765,2.631-3.3,5.3-4.855,7.98a.618.618,0,0,0-.371.636c-2.648,4.59-5.173,9.233-7.662,13.93a.142.142,0,0,0,.247.141c2.489-4.643,5.3-9.163,8.139-13.594h0a5.458,5.458,0,0,1,1.377-.265l1.448-.318c1.077-.23,2.154-.512,3.231-.777,2.136-.53,4.237-1.042,6.409-1.412.177,0,.088-.3,0-.265-2.542.477-5.085.777-7.662,1.059-1.218.141-2.419.3-3.619.494h-.177q2.242-3.425,4.59-6.815c1.518-2.207,3.09-4.4,4.661-6.585,1.465-.194,2.9-.583,4.343-.847l4.873-.953c3.248-.653,6.5-1.377,9.763-1.907C392.727,339.2,392.639,338.849,392.462,338.885Z" transform="translate(-327.916 -221.742)" fill="#263238"/><path d="M362.672,336.553c-.194-.6-.371-1.2-.565-1.765a35.488,35.488,0,0,1-.971-3.813c0-.177-.3-.088-.265,0,.283,1.289.583,2.56.865,3.831a22.944,22.944,0,0,0,1.095,3.761.265.265,0,0,0,.494-.141C363.131,337.824,362.866,337.189,362.672,336.553Z" transform="translate(-323.355 -217.168)" fill="#263238"/><path d="M383.643,329.85c-1.907.282-3.831.424-5.773.6s-3.831.424-5.756.724c-.106,0-.106.177,0,.159,1.924-.124,3.849-.283,5.773-.53s3.831-.53,5.773-.671C383.837,330.115,383.82,329.833,383.643,329.85Z" transform="translate(-314.807 -217.951)" fill="#263238"/><path d="M437.476,401.853c-.759-16.684-1.766-33.35-3.531-49.963-.83-8.28-1.765-16.543-2.931-24.717a173.783,173.783,0,0,0-4.784-23.993,46.186,46.186,0,0,0-7.98-16.913,18.167,18.167,0,0,0-16.137-7.062c-7.292.9-13.188,5.508-18.273,10.5-5.7,5.614-10.928,11.741-16.207,17.655-1.342,1.518-2.666,3.054-3.99,4.59-.106.141.088.335.212.194,5.173-5.932,10.593-11.705,16.154-17.214,5.19-5.1,10.593-10.593,17.655-12.782a18.467,18.467,0,0,1,10.31-.247,16.365,16.365,0,0,1,7.062,4.467c4.061,4.2,6.32,9.9,7.945,15.43,4.484,15.342,6.091,31.426,7.751,47.262s2.842,32.22,3.655,48.392,1.448,32.5,3.019,48.71c.194,1.995.441,3.99.706,5.985.159,1.324,2.242,1.342,2.136,0C438.994,435.379,438.217,418.625,437.476,401.853Z" transform="translate(-321.254 -256.78)" fill="#263238"/><path d="M401.324,296.445s9.534-17.655-1.766-23.3-48.939,36.4-59.938,97.914c0,0,60.856-26.924,81.53-53.759S418.414,284.563,401.324,296.445Z" transform="translate(-339.62 -261.75)" fill="#f09"/><path d="M406.192,301.883c-6.832,0-13.665-.512-20.5-.477l3.849-4.4a61.67,61.67,0,0,0,5.3-6.214c.088-.141-.106-.336-.247-.23a46.331,46.331,0,0,0-5.173,5.191c-1.766,1.766-3.425,3.637-5.12,5.473-2.613,2.842-5.173,5.7-7.733,8.6V298.511c0-4.7,0-9.428.353-14.124,0-.177-.265-.177-.282,0-.318,4.731-.812,9.428-1.042,14.124-.106,2.331-.159,4.643-.194,6.974v5.544c-.388.459-.812.9-1.2,1.342-5.455,6.25-10.593,12.694-15.713,19.261a4.585,4.585,0,0,0-.088-1.095c0-.724-.159-1.448-.229-2.172-.177-1.571-.388-3.125-.636-4.7s-.441-2.931-.689-4.4-.689-3.3-.812-4.961a.141.141,0,1,0-.265,0,47.877,47.877,0,0,1,.565,5.014l.424,4.52c.124,1.5.265,3,.424,4.52l.212,2.172a7.493,7.493,0,0,0,.141,1.077,1.765,1.765,0,0,0,.282.865l-2.6,3.39c-3.531,4.573-6.85,9.2-10.24,13.806-.106.141.106.335.212.194,3.213-4.184,6.515-8.3,9.851-12.358,2.507.106,5.067-.088,7.574-.124s5.3,0,7.909,0a.141.141,0,0,0,0-.283c-2.648,0-5.3.088-7.927.106s-4.855-.106-7.256,0c2.931-3.531,5.914-7.062,8.827-10.681l3.46-3.884a16.037,16.037,0,0,0,3.054.106h3.531c2.242,0,4.484,0,6.744-.088,4.643,0,9.286-.23,13.93-.247a.141.141,0,1,0,0-.265c-4.661,0-9.3-.265-13.947-.388-2.26,0-4.5-.124-6.762-.159h-5.614l7.68-9.092a.424.424,0,0,0,.141-.159c2.489-2.948,4.979-5.879,7.5-8.827.353-.388.706-.777,1.042-1.183,7.062.212,14.124-.247,21.186-.106C406.386,302.166,406.386,301.883,406.192,301.883Z" transform="translate(-335.537 -252.853)" fill="#263238"/><path d="M378.433,301.09h-1.66a.124.124,0,0,0,0,.247h1.642a.141.141,0,0,0,.018-.247Z" transform="translate(-311.274 -239.966)" fill="#263238"/><path d="M381.2,301.217c-2.189,0-4.378,0-6.568-.141l-3.266-.035a12.607,12.607,0,0,0-3.054,0,.106.106,0,0,0,0,.212,11.9,11.9,0,0,0,3.072.212h9.851C381.4,301.5,381.4,301.217,381.2,301.217Z" transform="translate(-317.735 -240.075)" fill="#263238"/><path d="M370.581,313.268a88.458,88.458,0,0,0-13.471-1.218v.088c4.484.424,8.951.671,13.4,1.395C370.687,313.568,370.757,313.286,370.581,313.268Z" transform="translate(-326.232 -231.576)" fill="#263238"/><path d="M355.1,305.5a8.742,8.742,0,0,0-.141-1.165c-.106-.883-.247-1.766-.388-2.631-.265-1.677-.547-3.337-.865-5.014,0-.141-.3-.106-.282,0,.212,1.766.406,3.443.565,5.173l.212,2.542a7.254,7.254,0,0,0,.335,2.4.335.335,0,0,0,.6-.088,3.424,3.424,0,0,0-.035-1.218Z" transform="translate(-329.057 -243.405)" fill="#263238"/><path d="M415.559,277.231c-2.189-4.061-4.961-9.41-10.4-9.075-4.484.282-6.515,4.855-7.468,8.651-2.966,11.705-3.178,24.064-3.743,36.069-1.236,25.37-2.33,50.758-2.489,76.163v21.186c0,7.186,0,14.406.494,21.574a.53.53,0,0,0,1.059,0c0-6.144-.177-12.358-.194-18.432s0-11.988.106-17.99q.3-18.2.971-36.4c.459-12.058.989-24.117,1.5-36.175.247-6.02.512-12.058.777-18.079s.512-11.67,1.183-17.478c.371-3.266.847-6.515,1.536-9.71a13.435,13.435,0,0,1,2.807-6.515,6.109,6.109,0,0,1,7.927-.565,16.737,16.737,0,0,1,5.632,7.062.206.206,0,1,0,.3-.283Z" transform="translate(-299.937 -265.188)" fill="#263238"/><path d="M409.284,276.57s-4.467-15.783,5.42-7.892c16.454,13.135,17.037,41.718,17.037,41.718s-29.254-16.984-32.891-28.248C393.43,265.518,409.284,276.57,409.284,276.57Z" transform="translate(-295.145 -266.468)" fill="#f09"/><path d="M422.411,293.774c-.265-.441-.547-.865-.83-1.306a8.512,8.512,0,0,0,0-1.342c0-.671,0-1.359,0-2.03a37.836,37.836,0,0,1,.141-4.008.141.141,0,1,0-.282,0c0,1.306-.124,2.631-.159,3.937v2.807c-1.148-1.766-2.331-3.531-3.531-5.3-.353-.512-.724-1.006-1.077-1.5a27.939,27.939,0,0,1-.088-5.155c0-1.765,0-3.672.106-5.508a.141.141,0,0,0-.282,0c0,1.907-.141,3.813-.247,5.72a34.817,34.817,0,0,0-.106,4.078c-2.825-3.831-5.826-7.539-8.828-11.228a.138.138,0,0,0-.212.177c1.871,2.383,3.672,4.82,5.438,7.292-3.443-.812-6.938-1.271-10.434-1.765-.177,0-.247.247,0,.282,3.708.565,7.344,1.483,11,2.3h0c1.395,1.977,2.789,3.955,4.149,5.95l1.66,2.436h-.141l-1.148-.159-2.436-.212c-1.677-.141-3.372-.23-5.067-.318-.177,0-.159.283,0,.283a46.507,46.507,0,0,1,4.961.335l2.63.318,1.13.141h.336c.936,1.377,1.889,2.754,2.807,4.131,1.66,2.454,3.143,5.067,4.89,7.415a.141.141,0,0,0,.229-.141,74.005,74.005,0,0,0-4.608-7.627Z" transform="translate(-291.977 -261.551)" fill="#263238"/><path d="M409.532,277.183v-1.854a28.229,28.229,0,0,1,.159-3.866.141.141,0,1,0-.265,0c0,1.289-.141,2.56-.212,3.831V278.1a3.182,3.182,0,0,0,0,.918.124.124,0,1,0,.247,0,2.721,2.721,0,0,0,0-.847Z" transform="translate(-286.372 -262.791)" fill="#263238"/><path d="M410.354,278.626c-1.095-.194-2.207-.247-3.3-.335s-2.4-.212-3.531-.371a.141.141,0,0,0,0,.282c2.313.141,4.608.565,6.921.636C410.46,278.856,410.477,278.644,410.354,278.626Z" transform="translate(-290.813 -257.702)" fill="#263238"/><path d="M412.555,278.435c.088.124,0,.477,0,.618v2.719a2.476,2.476,0,0,0,0,.953h.106a1,1,0,0,0,0-.459,4.807,4.807,0,0,1,0-.512v-3.319C412.661,278.312,412.379,278.17,412.555,278.435Z" transform="translate(-283.834 -257.423)" fill="#263238"/><path d="M427.3,326.026c-6.144-4.608-11.67-11.246-19.95-11.582-6.832-.265-11.617,4.873-14.353,10.593a61.215,61.215,0,0,0-3.337,9.445q-1.854,6.462-3.531,13.012-3.2,12.87-5.473,25.953c-.83,4.855-1.607,9.728-2.225,14.618A125.231,125.231,0,0,0,377,403.036a.777.777,0,0,0,1.536.177c.83-4.1,1.183-8.315,1.766-12.447s1.236-8.315,1.924-12.447q2.119-12.359,4.908-24.717c1.766-7.75,3.531-15.607,5.985-23.145,1.766-5.4,4.661-11.705,10.5-13.647,8.827-2.948,16.931,4.555,23.428,9.445C427.246,326.344,427.44,326.132,427.3,326.026Z" transform="translate(-311.006 -229.751)" fill="#263238"/><path d="M411.1,327.1s-5.685-16.19,2.525-19.42c12.358-4.749,44.455,31.479,38.152,86.985,0,0-24.84-13.683-43.2-29.1s-22.951-35.522-14.954-40.712S411.1,327.1,411.1,327.1Z" transform="translate(-301.168 -235.24)" fill="#f09"/><path d="M441.015,375.41a42.534,42.534,0,0,0-2.984-5.6c-1.059-1.907-2.119-3.8-3.213-5.667-2.136-3.655-4.255-7.309-6.444-10.946l-1.077-1.766a4.232,4.232,0,0,1,.124-.653l.371-1.607c.282-1.2.494-2.419.706-3.637.459-2.366.865-4.767,1.5-7.062,0-.159-.229-.212-.265,0-.512,2.366-1.271,4.714-1.96,7.062-.353,1.148-.724,2.277-1.024,3.443l-.318,1.183c-2.631-4.325-5.3-8.633-8.227-12.8a5.9,5.9,0,0,0,.3-1.766c.088-.812.177-1.624.282-2.436.212-1.766.424-3.655.689-5.473.53-3.531,1.059-7.062,1.942-10.593,0-.177-.23-.23-.265,0-.9,3.531-1.854,7.062-2.525,10.593-.318,1.766-.635,3.531-.865,5.3-.106.883-.212,1.766-.3,2.648a2.1,2.1,0,0,1-.106.794c-.883-1.253-1.766-2.525-2.7-3.743-2.842-3.743-5.791-7.38-8.828-11.017-.106-.141-.353,0-.229.159a196.694,196.694,0,0,1,13.983,20.409L422,346.174l-.812-.106c-1.042-.141-2.083-.194-3.125-.3l-6.285-.547c-4.184-.336-8.386-.583-12.553-1.024-.177,0-.23.247,0,.265,4.237.494,8.439,1.165,12.659,1.765,2.083.3,4.149.583,6.232.847a24.848,24.848,0,0,0,4.784.477c1.642,2.684,3.3,5.3,4.943,8.015H412.662c-.194,0-.159.265,0,.265,2.737,0,5.455.177,8.192.318l3.884.229,1.942.141a3.9,3.9,0,0,0,1.766,0l4.2,6.815c1.289,2.1,2.6,4.184,3.919,6.267a51.188,51.188,0,0,0,4.22,6.32C440.856,375.675,441.086,375.587,441.015,375.41Z" transform="translate(-294.109 -227.831)" fill="#263238"/><path d="M417.282,324.708a38.989,38.989,0,0,1-1.112,5.3c-.459,1.765-.971,3.531-1.554,5.3a.177.177,0,1,0,.336.106c.547-1.765,1.042-3.531,1.465-5.3s.706-3.531,1.148-5.385a.141.141,0,1,0-.282-.018Z" transform="translate(-282.222 -221.989)" fill="#263238"/><path d="M413.287,331.823a2.189,2.189,0,0,0-1.359-.512l-2.348-.318c-1.448-.194-2.913-.353-4.361-.53-3.037-.353-6.056-.653-9.092-1.024-.177,0-.23.247,0,.265,2.86.353,5.7.794,8.563,1.165l4.184.547,2.03.212a7.063,7.063,0,0,1,2.3.406.124.124,0,0,0,.088-.212Z" transform="translate(-296.482 -218.265)" fill="#263238"/><path d="M420.016,344.712c-1.43-.124-2.878-.177-4.308-.212H412.5a7.054,7.054,0,0,1-1.359,0c-.194,0-.212.3,0,.265a6.121,6.121,0,0,1,1.271,0h1.13l2.154.141c1.43.088,2.878.177,4.308.177C420.175,345.012,420.193,344.712,420.016,344.712Z" transform="translate(-284.992 -206.736)" fill="#263238"/><path d="M421.432,344.3l.477-2.436c.282-1.607.583-3.213.883-4.8a.141.141,0,1,0-.282,0l-1.059,4.678c-.177.777-.353,1.554-.512,2.33a4.839,4.839,0,0,1-.23,1.095,3.14,3.14,0,0,0-.124,1.148.177.177,0,0,0,.318.088A5.751,5.751,0,0,0,421.432,344.3Z" transform="translate(-277.65 -212.539)" fill="#263238"/><path d="M373.4,361.1l1.73,19.685,5.879,66.435h52.029l7.344-66.435,2.172-19.685Z" transform="translate(-313.762 -194.029)" fill="#fff"/><path d="M373.4,361.1l1.73,19.685h65.252l2.172-19.685Z" transform="translate(-313.762 -194.029)" fill="#a7bcc7"/><rect width="79.465" height="15.96" transform="translate(133.947 177.681) rotate(180)" fill="#819ba8"/></g><g transform="translate(259.338 124.78)"><path d="M246.992,506.469q0-42.372,13.841-76.145t57.1-58.844q12.994-7.786,32.026-17.655a258.331,258.331,0,0,0,37.2-23.8,135.942,135.942,0,0,0,30.719-32.432,74.786,74.786,0,0,0,12.553-42.848,70.761,70.761,0,0,0-6.885-32.1,73.462,73.462,0,0,0-18.167-23.357,75.668,75.668,0,0,0-26.482-14.283,102.4,102.4,0,0,0-30.72-4.749,89.263,89.263,0,0,0-34.5,6.426,118.092,118.092,0,0,0-28.107,16.437,137.814,137.814,0,0,0-22.51,22.51,246.864,246.864,0,0,0-16.86,23.781H233.169L170.9,197.509a168.021,168.021,0,0,1,29.854-47.668A183.185,183.185,0,0,1,243.126,114.8a198.566,198.566,0,0,1,51.535-21.5,222.045,222.045,0,0,1,57.113-7.362,226.935,226.935,0,0,1,64.9,9.516,164.932,164.932,0,0,1,57.537,30.3,157.128,157.128,0,0,1,41.542,53.212q16,32.45,16,77.452a167.3,167.3,0,0,1-6.479,48.886,136.327,136.327,0,0,1-18.626,38.523,162.227,162.227,0,0,1-28.548,31.143,327.1,327.1,0,0,1-37.216,26.818q-17.319,10.416-34.6,19.915a208.321,208.321,0,0,0-31.585,21.186,103.315,103.315,0,0,0-23.375,26.835q-9.074,15.148-9.075,36.775Zm1.766,201.6V588.67H344.8v119.4Z" transform="translate(-157.888 -85.93)" fill="#f09"/><g transform="translate(13.012 0)" opacity="0.2"><path d="M246.992,506.469q0-42.372,13.841-76.145t57.1-58.844q12.994-7.786,32.026-17.655a258.331,258.331,0,0,0,37.2-23.8,135.942,135.942,0,0,0,30.719-32.432,74.786,74.786,0,0,0,12.553-42.848,70.761,70.761,0,0,0-6.885-32.1,73.462,73.462,0,0,0-18.167-23.357,75.668,75.668,0,0,0-26.482-14.283,102.4,102.4,0,0,0-30.72-4.749,89.263,89.263,0,0,0-34.5,6.426,118.092,118.092,0,0,0-28.107,16.437,137.814,137.814,0,0,0-22.51,22.51,246.864,246.864,0,0,0-16.86,23.781H233.169L170.9,197.509a168.021,168.021,0,0,1,29.854-47.668A183.185,183.185,0,0,1,243.126,114.8a198.566,198.566,0,0,1,51.535-21.5,222.045,222.045,0,0,1,57.113-7.362,226.935,226.935,0,0,1,64.9,9.516,164.932,164.932,0,0,1,57.537,30.3,157.128,157.128,0,0,1,41.542,53.212q16,32.45,16,77.452a167.3,167.3,0,0,1-6.479,48.886,136.327,136.327,0,0,1-18.626,38.523,162.227,162.227,0,0,1-28.548,31.143,327.1,327.1,0,0,1-37.216,26.818q-17.319,10.416-34.6,19.915a208.321,208.321,0,0,0-31.585,21.186,103.315,103.315,0,0,0-23.375,26.835q-9.074,15.148-9.075,36.775Zm1.766,201.6V588.67H344.8v119.4Z" transform="translate(-170.9 -85.93)"/></g><path d="M239.675,506.469q0-42.372,13.841-76.145T310.63,371.48q12.976-7.786,32.008-17.655a257.514,257.514,0,0,0,37.216-23.8,136.263,136.263,0,0,0,30.719-32.432,74.911,74.911,0,0,0,12.535-42.848,70.761,70.761,0,0,0-6.921-32.008,73.462,73.462,0,0,0-18.167-23.357A75.669,75.669,0,0,0,371.54,185.1a102.4,102.4,0,0,0-30.719-4.749,89.121,89.121,0,0,0-34.515,6.338,118.288,118.288,0,0,0-28.124,16.437,137.707,137.707,0,0,0-22.492,22.51,247.173,247.173,0,0,0-16.878,23.781l-75.28-51.905a167.721,167.721,0,0,1,29.854-47.668A182.729,182.729,0,0,1,235.756,114.8a198.668,198.668,0,0,1,51.517-21.5,221.9,221.9,0,0,1,57.166-7.362,226.847,226.847,0,0,1,64.9,9.516,164.772,164.772,0,0,1,57.537,30.3,156.952,156.952,0,0,1,41.542,53.212q16,32.45,16.013,77.452a167.279,167.279,0,0,1-6.5,48.886,135.944,135.944,0,0,1-18.679,38.523,162.232,162.232,0,0,1-28.548,31.143,323.984,323.984,0,0,1-37.216,26.818q-17.284,10.416-34.6,19.915A208.331,208.331,0,0,0,367.3,442.876a103.246,103.246,0,0,0-23.357,26.835q-9.075,15.148-9.092,36.775Zm1.766,201.6V588.67h95.936v119.4Z" transform="translate(-163.53 -85.93)" fill="#f09"/></g><g transform="translate(81.47 152.653)"><path d="M235.3,490.662c-3.76,1.2-110.978-.177-115.021-2.825-1.554-.989-2.26-16.613-2.578-35.539v-.583c0-3.9-.124-7.927-.141-11.988V438.05c-.141-27.294.282-55.63.282-55.63l71.732.724-2.172,55.03-.088,2.189-.441,11.4v1.165s40.765,18.961,44.914,22.316S239.063,489.461,235.3,490.662Z" transform="translate(-20.871 113.156)" fill="#ad6359"/><path d="M235.29,466.541c-3.76,1.2-110.978-.177-115.021-2.825-1.554-.989-2.26-16.613-2.578-35.539v-.583c0-3.9-.124-7.927-.141-11.988V413.93l69.86.194-.088,2.189-.441,11.405v1.165s40.747,18.891,44.9,22.245S239.051,465.341,235.29,466.541Z" transform="translate(-20.859 137.277)" fill="#ebebeb"/><path d="M235.221,460.624c-2.313.742-43.855.494-76.375-.424-20.3-.547-37.075-1.395-38.646-2.4s-2.242-16.172-2.56-34.745V421.66l69.189.141v1.165s40.818,18.891,44.949,22.263S238.982,459.424,235.221,460.624Z" transform="translate(-20.79 143.194)" fill="#f09"/><path d="M230.866,441.908c-18.079-.671-91.011-1.765-108.931-1.006-.141,0-.141.106,0,.124,17.9,1.059,90.834,1.5,108.913,1.183C231.237,442.208,231.237,441.926,230.866,441.908Z" transform="translate(-17.582 157.726)" fill="#263238"/><path d="M170.447,422.156c-7.062-1.412-15.8-.441-21.309,4.555-.212.194,0,.494.3.424a100.854,100.854,0,0,1,20.974-4.078.459.459,0,0,0,.035-.9Z" transform="translate(3.255 143.121)" fill="#263238"/><path d="M173.337,423.946c-7.062-1.412-15.8-.441-21.309,4.555-.212.194,0,.494.3.424a100.631,100.631,0,0,1,20.9-4.078.459.459,0,0,0,.106-.9Z" transform="translate(5.468 144.492)" fill="#263238"/><path d="M176.217,425.736c-7.062-1.412-15.8-.441-21.309,4.555-.212.194,0,.494.3.424a100.86,100.86,0,0,1,20.974-4.061.459.459,0,0,0,.035-.918Z" transform="translate(7.672 145.862)" fill="#263238"/><path d="M176.136,414.18c-2.754-3.884-7.98-2.207-10.981.247A37.87,37.87,0,0,0,154,430.581a.177.177,0,0,0,.159.247.874.874,0,0,0,1.112.9c5.9-2.1,12.464-3.531,17.549-7.45C175.783,422.036,178.731,417.87,176.136,414.18Zm-12.588,12.535c-2.878,1.112-5.791,2.066-8.616,3.266,2.189-3.143,4.22-6.356,6.727-9.286a45.679,45.679,0,0,1,3.813-4.025c2.154-1.889,10.593-5.879,9.216,1.907C173.946,422.866,166.99,425.408,163.548,426.715Z" transform="translate(7.029 135.703)" fill="#263238"/><path d="M146.354,426.735c5.826,2.578,12.57,2.542,18.8,3.231a.927.927,0,0,0,.865-1.148.194.194,0,0,0,.106-.282,38.169,38.169,0,0,0-14.583-13.153c-3.531-1.766-8.969-2.119-10.734,2.3S142.947,425.234,146.354,426.735Zm-3.143-5.12c-3.107-7.256,6.02-5.3,8.527-3.955a38.151,38.151,0,0,1,4.643,3.037,109.605,109.605,0,0,1,8.686,7.486c-3.037-.53-6.091-.777-9.145-1.2-3.637-.477-10.911-1.359-12.676-5.367Z" transform="translate(-3.389 137.448)" fill="#263238"/><path d="M158.866,459.6c-20.3-.547-37.075-1.395-38.647-2.4s-2.242-16.172-2.56-34.745C125.958,429.883,146.649,448.332,158.866,459.6Z" transform="translate(-20.774 143.798)" fill="#263238"/><path d="M105.24,207.48s16.1,181.174,18.714,195c.618,3.16.989,20.285,1.236,42.283.547,48.039.23,134.654.23,134.654H201s-2.242-150.066-5.6-177.7-24.717-194.2-24.717-194.2Z" transform="translate(-30.282 -20.758)" fill="#fff"/><path d="M187.639,410.923c-11.793-.247-8.4-.335-20.2-.459-5.773,0-43.7-.371-49.1.512a.124.124,0,0,0,0,.247c5.4.883,43.325.565,49.1.494,11.793-.106,8.4-.194,20.2-.441a.177.177,0,1,0,0-.353Z" transform="translate(-20.346 134.564)" fill="#263238"/><path d="M135.632,476.753q-.141-16.454-.247-32.891c0-10.593,0-21.186-.565-31.779-1.024-21.486-5.3-42.6-8.474-63.84s-5.685-42.566-8.033-63.911c-2.631-23.94-4.943-47.933-7.4-71.891,0-.159-.283-.159-.265,0,3.531,42.8,7.539,85.573,13.453,128.1q2.225,15.889,4.837,31.673c1.765,10.593,3.531,21.327,4.361,32.114s.953,21.186,1.059,31.779q.194,16.454.335,32.873c.23,24.328.459,61.792.706,86.12a.371.371,0,0,0,.724,0C135.985,533.283,135.791,498.45,135.632,476.753Z" transform="translate(-26.141 -17.051)" fill="#263238"/><path d="M96.21,207.48s32.044,181.174,34.656,195c.618,3.16.989,20.285,1.236,42.283h0L168.224,207.48Z" transform="translate(-37.194 -20.758)" fill="#263238"/><path d="M184.614,497.811c-3.831.936-110.7-8.051-114.545-10.964-1.483-1.095-1.077-16.737,0-35.628v-.6c.212-3.884.441-7.892.724-11.952L70.9,436.9c1.765-27.241,4.22-55.472,4.22-55.472l71.485,5.9-6.056,54.73-.23,2.172-1.236,11.352-.124,1.165s39.353,21.733,43.254,25.388S188.445,496.875,184.614,497.811Z" transform="translate(-57.944 112.398)" fill="#ad6359"/><path d="M184.614,473.759c-3.831.936-110.7-8.051-114.545-10.964-1.483-1.095-1.077-16.737,0-35.628v-.6c.212-3.884.441-7.892.724-11.952l.106-1.766,69.648,5.138-.23,2.172-1.236,11.352-.124,1.165s39.353,21.733,43.254,25.388S188.445,472.824,184.614,473.759Z" transform="translate(-57.944 136.45)" fill="#ebebeb"/><path d="M184.614,467.811c-3.831.936-110.7-8.051-114.545-10.964-1.483-1.095-1.077-16.737,0-35.628v-.6l69.013,5.032-.124,1.165s39.353,21.733,43.254,25.388S188.445,466.876,184.614,467.811Z" transform="translate(-57.944 142.398)" fill="#f09"/><path d="M181.126,448.721c-17.973-1.96-90.658-8.139-108.577-8.721-.141,0-.159.106,0,.124,17.761,2.331,90.5,7.927,108.56,8.827C181.55,449.039,181.585,448.827,181.126,448.721Z" transform="translate(-55.393 157.233)" fill="#263238"/><path d="M122.455,424.412c-7.062-1.907-15.73-1.554-21.574,3.037-.23.177,0,.512.265.459a99.678,99.678,0,0,1,21.186-2.6.459.459,0,0,0,.124-.9Z" transform="translate(-33.691 144.467)" fill="#263238"/><path d="M125.219,426.4c-7.062-1.907-15.748-1.554-21.592,3.037-.212.177,0,.512.265.459a99.83,99.83,0,0,1,21.186-2.6.459.459,0,0,0,.141-.9Z" transform="translate(-31.582 145.99)" fill="#263238"/><path d="M127.969,428.392c-7.062-1.907-15.748-1.554-21.592,3.037-.212.177,0,.512.283.459a99.519,99.519,0,0,1,21.186-2.6.459.459,0,0,0,.124-.9Z" transform="translate(-29.477 147.514)" fill="#263238"/><path d="M129.112,416.78c-2.454-4.078-7.786-2.789-10.964-.547a37.835,37.835,0,0,0-12.358,15.324c0,.141,0,.23.141.265a.883.883,0,0,0,1.042.971c6.02-1.677,12.694-2.719,18.026-6.2C128.247,424.495,131.478,420.629,129.112,416.78Zm-13.435,11.6c-2.948.9-5.914,1.642-8.827,2.648a112.553,112.553,0,0,1,7.362-8.827,41.02,41.02,0,0,1,4.1-3.743c2.277-1.766,10.964-5.138,9.057,2.542-1.006,4.273-8.139,6.32-11.652,7.38Z" transform="translate(-29.861 137.428)" fill="#263238"/><path d="M98.115,427.516c5.632,2.984,12.358,3.425,18.52,4.537.636.124,1.024-.53.953-1.059a.194.194,0,0,0,.106-.282,37.781,37.781,0,0,0-13.612-14.124c-3.354-1.96-8.827-2.754-10.858,1.518S94.831,425.768,98.115,427.516Zm-2.772-5.3c-2.6-7.468,6.373-4.873,8.827-3.354a41.06,41.06,0,0,1,4.414,3.372,109.879,109.879,0,0,1,8.139,8.086c-3-.742-6.02-1.218-9.039-1.766-3.637-.865-10.875-2.242-12.341-6.373Z" transform="translate(-39.928 138.097)" fill="#263238"/><path d="M143.21,583.547l-75.51-3.2S88.321,414.643,88.692,404.421c.989-26.482,18.555-197.011,18.555-197.011h92.229S193.65,246.8,183.71,271.762a115.033,115.033,0,0,0-19.3,8.827s-8.651,112.8-8.969,126.868C154.738,435.317,143.21,583.547,143.21,583.547Z" transform="translate(-59.018 -20.812)" fill="#fff"/><path d="M139.385,413.926c-11.758-.742-8.368-.689-20.162-1.306-5.755-.3-43.643-2.224-49.063-1.571-.124,0-.124.212,0,.247,5.3,1.112,43.272,2.4,49.028,2.578,11.793.388,8.421.159,20.215.406a.177.177,0,0,0-.018-.353Z" transform="translate(-57.206 134.968)" fill="#263238"/><path d="M109.27,213.272c-3.425,42.954-6.938,85.926-10.875,128.88S89.85,428.237,84.271,471.121c-3.125,23.922-6.656,57.661-10.381,81.53,0,.159.212.23.247,0C81.746,510.28,87.343,457.6,92.092,414.784s8.651-85.75,12.129-128.686c1.96-24.293,3.725-48.6,5.6-72.9C109.835,212.972,109.394,212.972,109.27,213.272Z" transform="translate(-54.28 -16.504)" fill="#263238"/><path d="M145.124,242.938a142.578,142.578,0,0,0-22.581,10.593.253.253,0,0,0,.212.459c7.609-3.266,15.36-6.391,22.775-10.081a.526.526,0,0,0-.406-.971Z" transform="translate(-17.148 6.353)" fill="#263238"/><path d="M143.361,213.445c0-.265-.477-.318-.477,0,0,9.022-.512,16.966-1.271,25.423-.353,3.919-3.531,25.564-10.31,23.993-1.13-.265-1.765-1.395-1.889-3.107a26.022,26.022,0,0,1,.9-6.638c.742-4.537,1.359-9.075,1.766-13.665a124.238,124.238,0,0,0-.283-25.617.23.23,0,0,0-.441,0,234.579,234.579,0,0,1-2.066,35.31c-.847,5.632-3.69,14.124,2.207,14.971s9.887-13.312,10.593-17.2a129.268,129.268,0,0,0,1.271-33.474Z" transform="translate(-12.967 -16.36)" fill="#263238"/><path d="M130.845,241.861a33.541,33.541,0,0,0-1.518,4.484,9.852,9.852,0,0,0-.636,3.69c0,.247.335.265.459.106a13.065,13.065,0,0,0,1.589-3.531c.512-1.395,1.059-2.772,1.536-4.184a.769.769,0,1,0-1.43-.565Z" transform="translate(-12.332 5.188)" fill="#263238"/><path d="M124.409,218.614a11.493,11.493,0,0,0-.282-2.807.159.159,0,0,0-.283,0,12.358,12.358,0,0,0-.318,2.436,27.582,27.582,0,0,1-.318,2.789,40.911,40.911,0,0,1-.989,5.667,20.109,20.109,0,0,1-5.191,9.322A26.8,26.8,0,0,1,108.2,241.8a99.943,99.943,0,0,1-11.14,3.231.141.141,0,1,0,0,.282,32.432,32.432,0,0,0,12.182-2.4,26.217,26.217,0,0,0,9.163-5.844,20.356,20.356,0,0,0,5.3-9.587,29.325,29.325,0,0,0,.741-5.685,27.275,27.275,0,0,0-.035-3.178Z" transform="translate(-36.651 -14.45)" fill="#263238"/><path d="M183.645,120.941c5.685,6.868,11.864,25.423,11.635,30.49s-31.461,16.578-35.875,13.824-21.786-27.294-21.945-36.387S177.749,113.843,183.645,120.941Z" transform="translate(-5.618 -89.405)" fill="#ad6359"/><path d="M144.3,116.3c-2.86-2.984-12.111-11.9-16.225-7.874-2.578,2.507,3.637,9.375,6.25,12.094,5.385,5.579,9.551,15.448,11.493,20.268s11.034-4.7,11.034-4.7S151.769,124.049,144.3,116.3Z" transform="translate(-13.271 -97.369)" fill="#ad6359"/><path d="M142.853,142.908s3.2,8.58,8.4,8.386,3.884-7.574,3.813-8.1c.159.459,3.3,8.262,8.527,7.539s3-7.98,2.842-8.439c.283.371,4.308,5.3,8.139,3.831,6.6-2.507-3.3-15.342-2.348-20.974,0,0,9.745.547,10.028.494,0,0-9.181-12.358-16.86-13.276a4.908,4.908,0,0,0-5.3,3.213s-2.525-4.325-6.656-3.884c-2.119.23-3.637,3.831-3.637,3.831A6.144,6.144,0,0,0,144,112.771c-2.913.477-4.361,4.114-4.52,5.526C138.245,129.1,142.853,142.908,142.853,142.908Z" transform="translate(-4.232 -94.105)" fill="#ad6359"/><path d="M139.947,114.86h-.141a43.961,43.961,0,0,0,3.2,25.953c.124.247.583.159.494-.141A90.428,90.428,0,0,1,139.947,114.86Z" transform="translate(-4.362 -91.657)" fill="#263238"/><path d="M145.558,113.814c0-.106-.159-.106-.177,0a41.118,41.118,0,0,0,5.3,28.071c.194.3.653.371.459,0C147.907,136.024,145.382,121.989,145.558,113.814Z" transform="translate(0.002 -92.519)" fill="#263238"/><path d="M158.313,140.935c-4.837-8.3-6.55-17.3-6.956-26.818,0-.124-.177-.106-.212,0-1.059,4.714-.159,10.734.936,15.377a25.336,25.336,0,0,0,5.95,11.6C158.119,141.235,158.313,141.112,158.313,140.935Z" transform="translate(4.496 -92.292)" fill="#263238"/><path d="M141.3,137.068a29.222,29.222,0,0,0,2.719,4.52,9.71,9.71,0,0,0,3.813,3.319,3.178,3.178,0,0,0,2.277,0,4.661,4.661,0,0,0,1.942-1.324,5.7,5.7,0,0,0,.953-4.5l-.653-3.813,1.942,3.354a16.049,16.049,0,0,0,3.213,4.008,5.6,5.6,0,0,0,4.308,1.66,3.231,3.231,0,0,0,3-2.754,9.94,9.94,0,0,0-.618-4.873l-1.571-4.308,2.878,3.531a15.465,15.465,0,0,0,2.736,2.631,6.162,6.162,0,0,0,3.284,1.306,2.931,2.931,0,0,0,2.684-1.483,6.444,6.444,0,0,0,.265-3.531,51.076,51.076,0,0,0-2.119-7.662c-.424-1.271-.847-2.56-1.2-3.866a9.586,9.586,0,0,1-.459-3.99,10.594,10.594,0,0,0,.812,3.884c.459,1.253.971,2.489,1.483,3.743a43.325,43.325,0,0,1,2.56,7.75,7.575,7.575,0,0,1-.177,4.325,4.131,4.131,0,0,1-3.884,2.366,7.485,7.485,0,0,1-4.114-1.518,16.471,16.471,0,0,1-3.09-2.878l1.307-.777a11.246,11.246,0,0,1,.794,5.738,4.678,4.678,0,0,1-1.518,2.807,5.3,5.3,0,0,1-2.878,1.2,7.062,7.062,0,0,1-5.473-2.1,16.878,16.878,0,0,1-3.531-4.449l1.289-.459a6.779,6.779,0,0,1-1.483,5.491,5.738,5.738,0,0,1-2.472,1.518,3.99,3.99,0,0,1-2.9-.212,9.834,9.834,0,0,1-3.866-3.831,23.52,23.52,0,0,1-2.26-4.82Z" transform="translate(-2.678 -88.266)" fill="#263238"/><path d="M158.008,157.6s-33.668-17.214-20.48-27.065c3.9-2.931,23.481-10.293,25.035-6.391,2.013,5.032-5.6,9.64-10.822,11.758,0,0,12.27,4.255,11.864,13.665a9.375,9.375,0,0,1-5.6,8.033Z" transform="translate(-7.91 -85.405)" fill="#ad6359"/><path d="M135.61,131.779a19.154,19.154,0,0,1,4.7-3.319,45.465,45.465,0,0,1,5.3-2.4,66.6,66.6,0,0,1,11.123-3.284,10.346,10.346,0,0,1,3.072-.177,4.043,4.043,0,0,1,1.766.53,2.86,2.86,0,0,1,.741.618,2.648,2.648,0,0,1,.477.83,4.82,4.82,0,0,1,0,3.372,8.686,8.686,0,0,1-1.624,2.7,17.213,17.213,0,0,1-4.679,3.725,37.735,37.735,0,0,1-5.3,2.507v-1.254a23.881,23.881,0,0,1,3.972,1.995,21.271,21.271,0,0,1,3.531,2.666,14.934,14.934,0,0,1,2.684,3.531,11.475,11.475,0,0,1,1.395,4.114A13.083,13.083,0,0,0,161,144.067a15.767,15.767,0,0,0-2.86-3.072,20.128,20.128,0,0,0-3.531-2.366,22.055,22.055,0,0,0-3.831-1.66l-1.642-.512,1.589-.742a41.69,41.69,0,0,0,5-2.578,17.25,17.25,0,0,0,4.237-3.443,4.767,4.767,0,0,0,1.342-4.449c-.388-1.236-2.489-1.183-4.272-.918s-3.672.741-5.526,1.2-3.672.971-5.491,1.554A36.915,36.915,0,0,0,135.61,131.779Z" transform="translate(-7.034 -85.767)" fill="#263238"/><path d="M130.318,166.406c29.766,36.74,73.038,60.539,83.719,52.788S188.72,170.873,188.1,170.273c-2.1-2.013-18.026-10.293-46.944-22.475C112.786,135.846,117.024,150,130.318,166.406Z" transform="translate(-18.973 -69.848)" fill="#ad6359"/><path d="M175.819,162.833,153.4,192.317s-18.82-19.42-28.777-32.273S115.651,137.2,137.932,145.5a279.547,279.547,0,0,1,37.887,17.337Z" transform="translate(-20.072 -70.53)" fill="#f09"/><path d="M137.113,177c2.737-4.025,5.6-7.98,8.527-11.846,1.465-1.907,2.878-3.849,4.378-5.738s3.213-3.778,4.749-5.72c.106-.141.318,0,.212.141-1.412,1.942-2.684,3.972-4.1,5.914s-2.966,3.955-4.467,5.932q-4.431,5.826-9.128,11.44C137.2,177.229,136.954,177.123,137.113,177Z" transform="translate(-5.924 -61.974)" fill="#263238"/><path d="M164.076,175.777,153.342,189.9s-18.82-19.42-28.777-32.273l-.953-1.253-.406-.583-.618-.9q-.794-1.165-1.43-2.277c-.159-.265-.3-.53-.441-.794a21.573,21.573,0,0,1-1.765-4.219,10.765,10.765,0,0,1-.3-1.377c0-.23,0-.441,0-.653C128.431,152.349,151.382,167.2,164.076,175.777Z" transform="translate(-20.016 -68.149)" fill="#263238"/><path d="M189.486,275.183s-102.169,1.766-102.769,1.13c-1.589-1.765,19.05-106.971,40.394-128.651,7.539-7.662,23.093-4.537,25.688-3.284,5.985,2.9,11.617,9.145,16.331,20.727C178.558,188.268,190.775,273.523,189.486,275.183Z" transform="translate(-44.526 -70.365)" fill="#f09"/><path d="M157.936,146.511H126.987l.159-.177a13.719,13.719,0,0,1,2.383-1.924h25.688a21.185,21.185,0,0,1,2.719,2.1Zm3.407,3.531H124.074c-.494.653-.971,1.359-1.448,2.1h40.341c-.512-.742-1.042-1.395-1.5-2.1Zm3.849,5.632h-44.7c-.388.689-.777,1.395-1.148,2.119h47.05c-.371-.724-.759-1.448-1.165-2.119Zm2.878,5.65H117.559l-1.006,2.1h52.453c-.282-.724-.583-1.43-.9-2.083Zm2.242,5.632H115l-.9,2.1h56.937c-.23-.653-.459-1.43-.742-2.1Zm1.765,5.632H112.669c-.265.706-.547,1.395-.83,2.119H172.7Zm1.518,5.632H110.533c-.247.706-.512,1.395-.759,2.119h64.387a18.575,18.575,0,0,1-.53-2.119Zm1.377,5.65H108.5c-.247.689-.477,1.395-.706,2.1h67.653Zm1.271,5.632H106.737c-.23.689-.441,1.395-.671,2.1h70.761c-.247-.706-.388-1.412-.547-2.013Zm1.2,5.632H104.971c-.23.689-.441,1.395-.653,2.119h73.691c-.229-.706-.371-1.412-.53-2.119Zm1.148,5.632H103.206c-.212.706-.424,1.412-.618,2.119h76.534Zm1.095,5.65h-78.14c-.212.706-.406,1.395-.6,2.1H180.11c-.124-.706-.247-1.412-.388-2.1Zm1.042,5.632H99.975c-.194.706-.388,1.412-.565,2.1h81.742c-.124-.706-.265-1.395-.388-2.1Zm1.006,5.632H98.474c-.194.706-.371,1.412-.547,2.119h84.214q-.159-1.059-.371-2.119Zm1.006,5.65H97.009c-.159.706-.335,1.395-.512,2.1h86.615c-.106-.689-.23-1.395-.335-2.1Zm.918,5.632H95.614c-.159.706-.335,1.412-.494,2.1h88.928c-.106-.689-.229-1.395-.353-2.1Zm.918,5.632h-90.3c-.159.724-.318,1.43-.494,2.119h91.17c-.106-.706-.212-1.395-.335-2.119Zm.9,5.632H92.984c-.159.706-.318,1.43-.477,2.119h93.306c-.106-.689-.212-1.395-.3-2.119Zm.83,5.65H91.73c-.141.706-.3,1.412-.441,2.1h95.336Zm.812,5.632H90.53c-.141.724-.282,1.412-.424,2.1h97.349c-.106-.689-.194-1.395-.3-2.1Zm.777,5.632H89.417q-.247,1.095-.424,2.119h99.22a16.538,16.538,0,0,1-.265-2.119Zm.706,5.632H88.34c-.141.741-.265,1.448-.388,2.119H188.9q-.106-1.006-.265-2.119Zm.653,5.65H87.316c-.124.759-.212,1.465-.318,2.1H189.4a15.049,15.049,0,0,0-.106-2.1ZM86.646,274.05a1.889,1.889,0,0,0,0,.936c.477.477,63.84-.494,90.834-.936Z" transform="translate(-44.561 -69.037)" fill="#030402" opacity="0.1"/><path d="M151.194,159.258c-6.885,9.445-42.2,48.48-43.5,52.1s6.868,11.617,6.726,13.118c-.53,6.109-13.718,46.75-19,42.619-6.956-5.438-36.4-44.384-32.238-61.245s72.932-57.343,83.843-60.856S157.991,149.936,151.194,159.258Z" transform="translate(-62.782 -69.214)" fill="#ad6359"/><path d="M105.846,195.405,85.79,167.246s22.439-14.724,37.446-21.009,22.4-2.789,8.686,16.613a340.636,340.636,0,0,1-26.076,32.556Z" transform="translate(-45.17 -69.822)" fill="#f09"/><path d="M89.233,155.876Q94,161.4,98.5,167.175c1.483,1.889,2.984,3.76,4.414,5.685s2.842,4.078,4.343,6.056c.106.141-.106.318-.212.177-1.518-1.766-3.143-3.531-4.661-5.473s-3.072-3.884-4.59-5.826c-3-3.849-5.914-7.786-8.722-11.776C88.968,155.912,89.145,155.77,89.233,155.876Z" transform="translate(-42.681 -60.289)" fill="#263238"/><path d="M97.143,183.1c3.072-4.078,6.691-7.715,10.01-11.582s6.621-7.856,9.781-11.882c0,0,.23,0,.159.106-1.465,2.1-2.9,4.219-4.431,6.267-.759,1.006-1.554,2-2.366,2.984l1.183-.971a45.267,45.267,0,0,1,3.76-2.542s.141,0,0,.106a42.654,42.654,0,0,1-3.531,2.931c-.883.671-1.765,1.289-2.7,1.907l-1.412,1.766a83.972,83.972,0,0,1-10.257,11.034A.116.116,0,1,1,97.143,183.1Z" transform="translate(-36.503 -57.379)" fill="#263238"/><path d="M106.025,248.75c4.714-3.2-1.765-6.938-1.765-6.938s10.593,3.143,14.124-2.03-4.52-9.233-5.085-9.551c.565.177,10.381,2.789,13.453-2.772s-5.544-8.669-6.109-8.827c.583,0,8.227-.335,9.6-5.1,2.348-8.174-19.615-9.128-24.346-14.124,0,0,2.119-10.8,2.3-11.1a12.358,12.358,0,0,1-6.25,5.3c-4.749,1.342-9.022,2.119-10.946,4.4a6.25,6.25,0,0,0-.706,7.415s-6-.689-8.563,3.619c-1.306,2.207,1.077,6.285,1.077,6.285a7.433,7.433,0,0,0-6.868,3.531c-1.642,3.178,1.006,6.762,1.006,6.762s-4.8,1.766-5.42,5.579C70.344,238.828,95.926,255.565,106.025,248.75Z" transform="translate(-56.119 -35.44)" fill="#ad6359"/><path d="M74.88,209.8s-.194,0-.124.124A52.964,52.964,0,0,0,102.122,225.6c.335,0,.583-.459.229-.6A108.576,108.576,0,0,1,74.88,209.8Z" transform="translate(-53.628 -18.982)" fill="#263238"/><path d="M77.94,203.571a.113.113,0,0,0-.141.177,49.716,49.716,0,0,0,30.914,15.236c.406,0,.812-.353.335-.424C101.138,217.359,85.708,209.644,77.94,203.571Z" transform="translate(-51.32 -23.77)" fill="#263238"/><path d="M113.36,210.811c-11.511-1.306-21.451-6.179-30.931-12.641-.124,0-.23.088-.159.194,3.778,4.431,10.257,7.927,15.536,10.222a30.437,30.437,0,0,0,15.5,2.631A.205.205,0,0,0,113.36,210.811Z" transform="translate(-47.882 -27.885)" fill="#263238"/><path d="M75.377,225.222a7.362,7.362,0,0,1-1.766-7.5,5.579,5.579,0,0,1,2.737-2.754,9.392,9.392,0,0,1,4.5-.406,7.2,7.2,0,0,1-.124-8.157,5.508,5.508,0,0,1,3.531-1.854,17.46,17.46,0,0,1,4.679.177,6.391,6.391,0,0,1-1.359-5.561,6.956,6.956,0,0,1,4.237-4.643,33.546,33.546,0,0,1,7.433-1.766,16.574,16.574,0,0,0,3.8-1.042,7.168,7.168,0,0,0,3.16-2.825c.141-.212.141,0,0,.194a8.687,8.687,0,0,1-1.871,2.225,11.245,11.245,0,0,1-2.56,1.677,48.365,48.365,0,0,1-7.062,2.066,9.887,9.887,0,0,0-5.3,3.531A5.932,5.932,0,0,0,89.2,204.8s0,.23-.159.212a17.32,17.32,0,0,0-4.184.494,5.649,5.649,0,0,0-2.931,1.766,7.592,7.592,0,0,0-.353,7.556,12.359,12.359,0,0,0-4.4,1.13,5.561,5.561,0,0,0-2.083,2.3,6.55,6.55,0,0,0,.689,6.832.194.194,0,0,1,0,.088h0s-1.536.636-1.607.636h0a10.851,10.851,0,0,1,1.2-.583Z" transform="translate(-54.778 -35.057)" fill="#263238"/><path d="M133.835,168.381c-5.614,2.066-16.6-5.579-21.38-12.253-.318-.459-.636-20.321-1.095-24.24-.106-.812,25.37,3.037,25.37,3.037a63.011,63.011,0,0,0-.565,15.36C136.236,150.85,139.255,166.4,133.835,168.381Z" transform="translate(-25.597 -78.708)" fill="#ad6359"/><path d="M136.73,134.924s-.282,1.642-.512,4.078c-7.062,8.669-18.4,9.587-24.152,9.392-.194-6.162-.424-14.124-.706-16.507C111.254,131.093,136.73,134.924,136.73,134.924Z" transform="translate(-25.597 -78.707)" fill="#263238"/><path d="M115.971,107.87s-8.121,3.143-9.781,11.264,0,16.737.671,17.178S115.971,107.87,115.971,107.87Z" transform="translate(-30.102 -97.008)" fill="#263238"/><path d="M148.92,120.6c2.083,8.951-4.237,34-10.875,39.229-9.6,7.592-24.5,7.38-30.755-3.972-6.038-11,2.789-43.484,10.116-48.162C128.176,100.831,145.8,107.363,148.92,120.6Z" transform="translate(-30.248 -99.256)" fill="#ad6359"/><path d="M143.943,144.464c-5.191-.512-2.366-23.41-2.366-23.41a33.228,33.228,0,0,1-9.94,1.765,45.037,45.037,0,0,1-10.116-1.518c-.706-.265,8.669-2.913,8.669-2.913s-23.057,2.013-23.834-2.33c-.282-1.5,4.008-15.166,23.146-14.3,14.124.636,20.709,15.4,20.709,15.4s6.868,7.645,5.685,11.1C153.882,134.33,149.451,145.011,143.943,144.464Z" transform="translate(-29.438 -101.718)" fill="#263238"/><path d="M126.756,128.5s6.444-7.7,9.993-5.3-1.765,13.859-6.32,15.113a4.467,4.467,0,0,1-5.738-2.913Z" transform="translate(-15.393 -85.628)" fill="#ad6359"/><path d="M134.094,124.82v.124a11.228,11.228,0,0,0-6.409,6.5,2.472,2.472,0,0,1,3.725-.353.106.106,0,0,1-.106.159,2.772,2.772,0,0,0-3.09.689,13.363,13.363,0,0,0-1.642,2.313c-.177.265-.653,0-.512-.23h0C126.361,130.028,129.875,124.838,134.094,124.82Z" transform="translate(-14.363 -84.033)" fill="#263238"/><path d="M195.089,224.448c14.336-11.07.636-67.265-7.7-87.957-2.454-6.091-41.383,5.3-39.565,12.129C158.225,187.267,179.394,236.577,195.089,224.448Z" transform="translate(2.271 -76.426)" fill="#ad6359"/><path d="M151.45,154.62l4.29,10.593c1.465,3.531,2.9,7.062,4.484,10.593s3.125,6.938,4.749,10.381,3.425,6.815,5.191,10.2a90.682,90.682,0,0,1-6.091-9.728c-1.765-3.372-3.531-6.832-5.067-10.328s-2.948-7.062-4.22-10.7S152.421,158.345,151.45,154.62Z" transform="translate(5.091 -61.222)" fill="#263238"/></g><g transform="translate(201.433 35.177)"><path d="M158.726,95.347a10.081,10.081,0,1,1-3.56-6.857A10.081,10.081,0,0,1,158.726,95.347Z" transform="translate(-124.707 3.824)" fill="#fff"/><path d="M159.462,95.525A11.05,11.05,0,1,1,148.551,85.9,10.593,10.593,0,0,1,159.462,95.525Zm0,0a9.657,9.657,0,1,0-2.367,7.213,9.657,9.657,0,0,0,2.367-7.213Z" transform="translate(-125.443 3.647)" fill="#263238"/><path d="M142.44,104.109a5.6,5.6,0,1,1-1.971-3.824,5.614,5.614,0,0,1,1.971,3.824Z" transform="translate(-130.349 13.653)" fill="#fff"/><path d="M142.823,104.291a6.056,6.056,0,1,1-6.109-5.561,6.056,6.056,0,0,1,6.109,5.561Zm0,0a5.191,5.191,0,1,0-4.59,5.6,5.173,5.173,0,0,0,4.59-5.6Z" transform="translate(-130.731 13.471)" fill="#263238"/><path d="M239.65,87.27a29.466,29.466,0,0,1-25.67,32.785,29.148,29.148,0,0,1-15.007-2.1,24.717,24.717,0,0,1-39.282,0,20.5,20.5,0,0,1-3.319.689,20.021,20.021,0,0,1-18.8-31.39,29.448,29.448,0,0,1,39.635-42.6,24.717,24.717,0,0,1,42.372,6.727,15.412,15.412,0,0,1,3.178-.706,16.172,16.172,0,0,1,13.965,26.853,29.007,29.007,0,0,1,2.931,9.745Z" transform="translate(-130.316 -34.989)" fill="#fff"/><path d="M240.043,87.458a29.89,29.89,0,0,1-5.985,21.733,30.984,30.984,0,0,1-5.473,5.385,29.819,29.819,0,0,1-29.307,3.813h.282a25.017,25.017,0,0,1-19.862,9.957,25.282,25.282,0,0,1-11.176-2.56,25.97,25.97,0,0,1-8.916-7.274l.636.212a20.78,20.78,0,0,1-12.57-.177,20.568,20.568,0,0,1-10.187-7.433,22.315,22.315,0,0,1-2.913-5.7,21.45,21.45,0,0,1-1.042-6.32,20.868,20.868,0,0,1,3.743-12.111v.989A30.107,30.107,0,0,1,177.88,44.38l-.777.106a25.147,25.147,0,0,1,43.1,7.044l-.229-.124a16.454,16.454,0,0,1,10.593.141,16.225,16.225,0,0,1,6.55,26.182h0A28.832,28.832,0,0,1,240.043,87.458Zm0,0a28.883,28.883,0,0,0-3-9.728h0a16.053,16.053,0,0,0-16.966-26.023H219.9V51.53a24.717,24.717,0,0,0-7.5-10.24,24.205,24.205,0,0,0-11.617-5.085,24.54,24.54,0,0,0-12.553,1.412,24.187,24.187,0,0,0-10.081,7.521l-.335.424-.459-.318A28.76,28.76,0,0,0,138.7,86.84l.388.494-.371.512a19.191,19.191,0,0,0-3.531,11.14,20.532,20.532,0,0,0,.936,5.844,19.9,19.9,0,0,0,2.666,5.3,19.42,19.42,0,0,0,21.186,7.362l.406-.106.23.318a24.717,24.717,0,0,0,8.439,7.062,24.311,24.311,0,0,0,30.19-6.779l.124-.159h.177a29.077,29.077,0,0,0,14.954,2.189,29.678,29.678,0,0,0,14.124-5.667,30.682,30.682,0,0,0,5.473-5.3,31.109,31.109,0,0,0,3.9-6.6A29.819,29.819,0,0,0,240.043,87.458Z" transform="translate(-130.708 -35.177)" fill="#263238"/><path d="M166.837,80.352a16.472,16.472,0,0,1,1.13-6.285,10.363,10.363,0,0,1,4.714-4.855c.724-.441,1.589-.918,2.648-1.465a21.185,21.185,0,0,0,3.054-1.96,11.441,11.441,0,0,0,2.542-2.684,6.2,6.2,0,0,0,1.042-3.531,5.791,5.791,0,0,0-.583-2.648,5.967,5.967,0,0,0-1.5-1.924,6.127,6.127,0,0,0-2.172-1.165,8.3,8.3,0,0,0-2.525-.406,7.062,7.062,0,0,0-2.86.547,9.922,9.922,0,0,0-2.313,1.342,10.929,10.929,0,0,0-1.765,1.871,18.709,18.709,0,0,0-1.395,1.96l-6.215-4.29a14.124,14.124,0,0,1,2.472-3.919,14.567,14.567,0,0,1,3.46-2.913,16.7,16.7,0,0,1,4.237-1.765,18.167,18.167,0,0,1,4.714-.6,19.12,19.12,0,0,1,5.3.777,13.806,13.806,0,0,1,4.749,2.507,12.923,12.923,0,0,1,3.425,4.378,14.53,14.53,0,0,1,1.307,6.391,13.9,13.9,0,0,1-.53,4.025,11.052,11.052,0,0,1-1.536,3.178,13.541,13.541,0,0,1-2.348,2.578,25.475,25.475,0,0,1-3.072,2.207l-2.86,1.642a17.529,17.529,0,0,0-2.6,1.765,8.139,8.139,0,0,0-1.96,2.207,5.7,5.7,0,0,0-.759,3.037Zm.141,16.631V87.131h7.909v9.851Z" transform="translate(-107.837 -27.153)" fill="#f09"/><path d="M162.372,61.912a15.888,15.888,0,0,1,.177,6.373,10.292,10.292,0,0,1-3.531,5.72c-.618.565-1.377,1.218-2.3,1.977a21.94,21.94,0,0,0-2.6,2.542,11.316,11.316,0,0,0-1.924,3.143,6.161,6.161,0,0,0-.282,3.672,5.6,5.6,0,0,0,1.095,2.454,5.949,5.949,0,0,0,1.871,1.589,6.162,6.162,0,0,0,2.366.706,8.828,8.828,0,0,0,2.56-.141,7.186,7.186,0,0,0,2.684-1.112,10.293,10.293,0,0,0,2-1.766,10.753,10.753,0,0,0,1.43-2.207,20.342,20.342,0,0,0,.953-2.207l6.956,2.931a13.664,13.664,0,0,1-1.607,4.343,14.794,14.794,0,0,1-2.825,3.531,16.737,16.737,0,0,1-3.778,2.613,17.989,17.989,0,0,1-4.484,1.554,18.414,18.414,0,0,1-5.4.335,13.347,13.347,0,0,1-5.155-1.465,13.153,13.153,0,0,1-4.255-3.531,15.784,15.784,0,0,1-2.913-10.046,10.98,10.98,0,0,1,.847-3.407,13.206,13.206,0,0,1,1.765-3,26.11,26.11,0,0,1,2.542-2.807c.812-.742,1.642-1.483,2.454-2.189a16.347,16.347,0,0,0,2.136-2.313,8.545,8.545,0,0,0,1.43-2.56,5.773,5.773,0,0,0,.106-3.125ZM158.841,45.67l2.03,9.64-7.75,1.624-2.03-9.64Z" transform="translate(-121.044 -27.146)" fill="#f09"/></g></g></svg>